<svg version="1.1" id="Layer_1" xmlns="http://www.w3.org/2000/svg" x="0" y="0" viewBox="0 0 200 37.9" xml:space="preserve"><path fill="#006fad" d="M39.2 34.2V34c.1-1-.5-2.2.2-2.8s1.8-.4 2.8-.5c3.3-.4 6.5-1 9.7-1.7.5-.1.7-.3.7-.9-.5-11-8.8-19.9-19.5-21.4A23 23 0 006.8 25.9l-.1.8c-.2 2-.2 2 1.8 2.5 3.5.8 7 1.4 10.6 1.7.8.1 1.1.3 1 1.1v4.7c0 .5 0 .8-.7.7a94.5 94.5 0 01-15.9-2.8c-2-.3-3.5-2.1-3.5-4.2A29.1 29.1 0 0123 .8a30 30 0 0133.2 15.4 27.2 27.2 0 012.9 14.9 4 4 0 01-3 3.4 83.3 83.3 0 01-13.2 2.6l-2.9.3c-.7.1-.9 0-.9-.7l.1-2.5z"/><path fill="#006fad" d="M32.9 28.7V37c0 .8-.3.9-1 .9h-4.6c-.9 0-1-.3-1-1V20.8c0-1.4 0-1.4-1.2-.8a10 10 0 00-4.6 4.7c-.2.5-.5.7-1 .6-1.7-.2-3.3-.5-5-.6-.8-.1-.7-.4-.5-1a16.7 16.7 0 0131.4-.2c.3.9.2 1.2-.8 1.2l-4.3.6c-.7.2-1.4-.1-1.7-.8v-.1a9.8 9.8 0 00-4.7-4.7c-.7-.3-1-.3-1 .6v8.4zM72.3 14.7v13.1H76V14.7h4v-3.5H68.4v3.4zM117.1 14.7v13.1h3.7V14.7h4v-3.5h-11.6v3.4zM84.3 11.2H95v3.6h-7.1v3h6v3.3H88v3.3h7v3.4H84.3zM189.3 11.2H200v3.6h-7.1v3h6.1v3.3h-6v3.3h7v3.4h-10.7zM155.1 11a8.4 8.4 0 00-8.4 8.6c0 4.7 3.9 8.5 8.6 8.4 4.7 0 8.4-3.8 8.4-8.5s-3.9-8.5-8.6-8.5zm0 13.3a4.8 4.8 0 01-4.8-4.9c0-2.7 2.2-4.8 4.9-4.8 2.6 0 4.8 2.2 4.8 4.8a5 5 0 01-4.9 4.9zM107.9 15.7l1.9-2.5s-2.8-2-5.1-2c-3 0-5.4 1.3-5.5 4.6s2.9 4.3 5.3 5.3 2.3 3.8 0 3.7a9.3 9.3 0 01-3.9-1.5l-1.4 2.6c1.5 1.3 3.4 2 5.3 2 4.9 0 5.9-3.4 5.8-5.2s-1.8-3.7-4-4.6-4.1-2.3-3.4-3.3c.5-.8 1.6-1 2.4-.6l2.6 1.5zM134.3 11.1H129v16.8h5.8c2.5 0 8.5-2.5 8.5-8.5s-5.1-8.3-9-8.3zm1 13.1h-2.7v-9.7h2.6c2.4 0 4.3 1.9 4.4 4.3-.1 4-2.3 5.4-4.3 5.4zM166.1 27.8s2.9-16.4 3.1-16.6c.4-.2.8 0 1 .3l5.5 9.9s5.3-9.3 5.5-9.9.8-.4 1 .1 2.9 16.1 2.9 16.1h-3.6l-1.1-7.5s-3.8 7.5-4 7.5-1.2.1-1.4-.1l-4-7.4-1 7.5h-3.9z"/></svg>
